<svg xmlns="http://www.w3.org/2000/svg" xmlns:v="https://svgstorm.com"
viewBox = "0 0 200 200"
width="200"
height="200">
<g fill="None" fill-opacity="0.0" stroke="#FDFEFE" stroke-opacity="1.00" stroke-width="0.3"><path d="
M 0.00 200.00 
L 200.00 200.00
L 200.00 0.00
L 0.00 0.00
L 0.00 200.00
M 91.00 21.00 
C 91.50 21.00 92.00 21.00 92.00 21.00
C 98.97 22.15 106.76 23.94 113.08 26.92 C 119.39 29.91 124.51 32.75 130.08 36.92 C 135.65 41.09 138.54 45.59 143.25 50.75 C 147.96 55.91 148.50 62.14 152.78 68.22 C 157.05 74.31 153.68 86.24 149.22 75.78 C 144.77 65.31 147.30 66.98 141.08 56.92 C 134.85 46.87 123.20 36.26 112.77 31.23 C 102.34 26.20 102.23 25.28 92.00 24.00
C 90.72 23.84 89.30 24.00 88.00 24.00
C 82.67 24.00 77.33 23.89 72.00 24.00
C 65.21 24.14 58.13 28.43 52.00 28.00
C 50.61 29.56 48.15 30.67 46.00 31.00
C 47.09 28.60 50.00 28.33 52.00 27.00
C 59.08 23.95 67.13 21.43 75.00 21.00
C 78.94 20.36 87.29 18.25 91.00 21.00
M 88.00 55.00 
C 102.98 55.42 111.92 64.92 122.00 75.00
C 125.27 78.27 126.69 80.51 128.00 85.00
C 130.87 94.87 130.97 104.47 129.00 114.00
C 127.93 119.19 126.52 122.58 124.00 127.00
C 122.98 128.80 122.04 131.05 121.00 133.00
C 118.63 136.32 115.27 139.66 112.00 142.00
C 109.84 143.54 107.31 144.73 105.00 146.00
C 62.66 169.34 14.42 119.39 40.00 78.00
C 40.64 76.96 41.38 76.01 42.00 75.00
C 42.39 74.36 42.63 73.61 43.00 73.00
C 45.67 68.62 50.72 64.36 55.00 62.00
C 58.22 60.22 61.60 58.37 65.00 57.00
C 68.87 55.44 72.65 55.03 77.00 55.00
C 80.62 54.56 84.41 54.49 88.00 55.00
M 166.00 102.00 
C 165.19 106.30 164.80 108.34 161.00 111.00
C 148.82 119.52 131.49 105.89 140.00 92.00
C 142.35 88.17 144.99 86.99 149.00 86.00
C 159.84 83.31 168.00 91.33 166.00 102.00
M 146.00 144.00 
C 139.79 154.45 131.46 162.52 121.00 169.00
C 112.08 174.52 101.60 178.42 91.00 179.00
C 85.84 179.84 80.11 179.92 75.00 179.00
C 67.27 178.47 59.02 176.19 52.00 173.00
C 50.64 172.38 49.29 171.73 48.00 171.00
C 46.57 170.19 44.50 169.82 44.00 168.00
C 45.41 168.15 47.34 168.65 48.00 170.00
C 49.39 170.59 51.24 170.38 52.00 172.00
C 58.82 172.67 64.79 175.72 72.00 176.00
C 76.64 176.18 81.36 176.09 86.00 176.00
C 97.28 175.77 109.43 171.68 119.00 166.00
C 128.27 160.50 139.32 148.46 144.00 139.00
C 147.30 132.32 146.37 131.31 149.93 123.93 C 153.48 116.54 156.85 123.47 153.68 129.68 C 150.51 135.89 149.27 138.50 146.00 144.00 Z"/>
</g>
<g fill="None" fill-opacity="0.0" stroke="#8BB4ED" stroke-opacity="1.00" stroke-width="0.3"><path d="
M 75.00 21.00 
C 80.30 20.71 85.69 21.00 91.00 21.00
C 87.29 18.25 78.94 20.36 75.00 21.00 Z"/>
</g>
<g fill="None" fill-opacity="0.0" stroke="#234D9A" stroke-opacity="1.00" stroke-width="0.3"><path d="
M 52.00 27.00 
C 51.84 27.06 52.00 28.00 52.00 28.00
C 58.13 28.43 65.21 24.14 72.00 24.00
C 77.13 23.38 82.92 23.31 88.00 24.00
C 89.30 24.00 90.72 23.84 92.00 24.00
C 90.35 22.75 90.05 22.26 92.00 21.00
C 92.00 21.00 91.50 21.00 91.00 21.00
C 85.69 21.00 80.30 20.71 75.00 21.00
C 67.13 21.43 59.08 23.95 52.00 27.00 Z"/>
</g>
<g fill="None" fill-opacity="0.0" stroke="#1F6BB1" stroke-opacity="1.00" stroke-width="0.3"><path d="
M 92.00 24.00 
C 102.23 25.28 102.34 26.20 112.77 31.23 C 123.20 36.26 134.85 46.87 141.08 56.92 C 147.30 66.98 144.77 65.31 149.22 75.78 C 153.68 86.24 157.05 74.31 152.78 68.22 C 148.50 62.14 147.96 55.91 143.25 50.75 C 138.54 45.59 135.65 41.09 130.08 36.92 C 124.51 32.75 119.39 29.91 113.08 26.92 C 106.76 23.94 98.97 22.15 92.00 21.00
C 90.05 22.26 90.35 22.75 92.00 24.00 Z"/>
</g>
<g fill="None" fill-opacity="0.0" stroke="#8EB6F2" stroke-opacity="1.00" stroke-width="0.3"><path d="
M 72.00 24.00 
C 77.33 23.89 82.67 24.00 88.00 24.00
C 82.92 23.31 77.13 23.38 72.00 24.00 Z"/>
</g>
<g fill="None" fill-opacity="0.0" stroke="#879BB2" stroke-opacity="1.00" stroke-width="0.3"><path d="
M 52.00 28.00 
C 52.00 28.00 51.84 27.06 52.00 27.00
C 50.00 28.33 47.09 28.60 46.00 31.00
C 48.15 30.67 50.61 29.56 52.00 28.00 Z"/>
</g>
<g fill="None" fill-opacity="0.0" stroke="#4F8CCB" stroke-opacity="1.00" stroke-width="0.3"><path d="
M 77.00 55.00 
C 78.67 54.99 80.33 55.00 82.00 55.00
C 84.00 55.00 86.00 54.94 88.00 55.00
C 84.41 54.49 80.62 54.56 77.00 55.00 Z"/>
</g>
<g fill="None" fill-opacity="0.0" stroke="#0157BC" stroke-opacity="1.00" stroke-width="0.3"><path d="
M 65.00 57.00 
C 65.27 57.00 67.04 58.90 68.00 58.00
C 65.95 59.34 67.05 60.56 65.00 62.00
C 73.35 67.42 83.42 77.32 91.75 86.25 C 100.08 95.17 111.72 103.80 117.00 115.00
C 121.05 112.91 120.16 118.96 123.00 117.00
C 123.87 121.55 121.95 122.46 124.00 127.00
C 126.52 122.58 127.93 119.19 129.00 114.00
C 129.42 99.88 114.48 93.35 106.75 83.25 C 99.03 73.14 88.46 66.43 82.00 55.00
C 80.33 55.00 78.67 54.99 77.00 55.00
C 72.65 55.03 68.87 55.44 65.00 57.00 Z"/>
</g>
<g fill="None" fill-opacity="0.0" stroke="#0867BA" stroke-opacity="1.00" stroke-width="0.3"><path d="
M 129.00 114.00 
C 130.97 104.47 130.87 94.87 128.00 85.00
C 126.77 82.01 123.99 77.79 122.00 75.00
C 111.92 64.92 102.98 55.42 88.00 55.00
C 86.00 54.94 84.00 55.00 82.00 55.00
C 88.46 66.43 99.03 73.14 106.75 83.25 C 114.48 93.35 129.42 99.88 129.00 114.00 Z"/>
</g>
<g fill="None" fill-opacity="0.0" stroke="#0149BC" stroke-opacity="1.00" stroke-width="0.3"><path d="
M 55.00 62.00 
C 51.13 64.68 46.32 69.44 43.00 73.00
C 42.63 73.61 42.39 74.36 42.00 75.00
C 44.80 71.95 48.50 68.94 52.00 67.00
C 51.71 73.69 63.62 71.94 67.03 79.97 C 70.45 87.99 79.79 90.41 84.22 96.78 C 88.66 103.14 96.08 108.90 100.92 114.08 C 105.75 119.27 114.04 126.76 114.00 131.00
C 116.06 132.35 118.99 129.81 120.00 133.00
C 120.16 132.77 121.00 133.00 121.00 133.00
C 122.04 131.05 122.98 128.80 124.00 127.00
C 121.95 122.46 123.87 121.55 123.00 117.00
C 120.16 118.96 121.05 112.91 117.00 115.00
C 111.72 103.80 100.08 95.17 91.75 86.25 C 83.42 77.32 73.35 67.42 65.00 62.00
C 67.05 60.56 65.95 59.34 68.00 58.00
C 67.04 58.90 65.27 57.00 65.00 57.00
C 61.60 58.37 58.22 60.22 55.00 62.00 Z"/>
</g>
<g fill="None" fill-opacity="0.0" stroke="#88ACE0" stroke-opacity="1.00" stroke-width="0.3"><path d="
M 43.00 73.00 
C 46.32 69.44 51.13 64.68 55.00 62.00
C 50.72 64.36 45.67 68.62 43.00 73.00 Z"/>
</g>
<g fill="None" fill-opacity="0.0" stroke="#003ABC" stroke-opacity="1.00" stroke-width="0.3"><path d="
M 42.00 75.00 
C 41.38 76.01 40.64 76.96 40.00 78.00
C 41.46 76.43 44.62 75.85 46.00 74.00
C 43.13 80.41 52.23 83.05 57.25 89.75 C 62.27 96.46 69.69 101.18 75.25 107.75 C 80.80 114.33 87.40 118.92 93.00 126.00
C 96.41 122.13 96.20 127.14 96.00 130.00
C 99.79 128.65 100.70 132.25 104.00 132.00
C 103.27 135.15 104.57 137.57 107.00 139.00
C 108.08 136.06 110.61 138.57 112.00 140.00
C 109.18 141.14 106.54 143.35 105.00 146.00
C 107.31 144.73 109.84 143.54 112.00 142.00
C 114.71 139.73 118.00 135.86 120.00 133.00
C 118.99 129.81 116.06 132.35 114.00 131.00
C 114.04 126.76 105.75 119.27 100.92 114.08 C 96.08 108.90 88.66 103.14 84.22 96.78 C 79.79 90.41 70.45 87.99 67.03 79.97 C 63.62 71.94 51.71 73.69 52.00 67.00
C 48.50 68.94 44.80 71.95 42.00 75.00 Z"/>
</g>
<g fill="None" fill-opacity="0.0" stroke="#0124BC" stroke-opacity="1.00" stroke-width="0.3"><path d="
M 40.00 78.00 
C 14.42 119.39 62.66 169.34 105.00 146.00
C 106.54 143.35 109.18 141.14 112.00 140.00
C 110.61 138.57 108.08 136.06 107.00 139.00
C 104.57 137.57 103.27 135.15 104.00 132.00
C 100.70 132.25 99.79 128.65 96.00 130.00
C 96.20 127.14 96.41 122.13 93.00 126.00
C 87.40 118.92 80.80 114.33 75.25 107.75 C 69.69 101.18 62.27 96.46 57.25 89.75 C 52.23 83.05 43.13 80.41 46.00 74.00
C 44.62 75.85 41.46 76.43 40.00 78.00 Z"/>
</g>
<g fill="None" fill-opacity="0.0" stroke="#BDE8F8" stroke-opacity="1.00" stroke-width="0.3"><path d="
M 128.00 85.00 
C 126.69 80.51 125.27 78.27 122.00 75.00
C 123.99 77.79 126.77 82.01 128.00 85.00 Z"/>
</g>
<g fill="None" fill-opacity="0.0" stroke="#1665B6" stroke-opacity="1.00" stroke-width="0.3"><path d="
M 149.00 86.00 
C 151.70 86.38 155.26 91.71 157.25 93.75 C 159.24 95.80 165.27 99.41 166.00 102.00
C 168.00 91.33 159.84 83.31 149.00 86.00 Z"/>
</g>
<g fill="None" fill-opacity="0.0" stroke="#094EB9" stroke-opacity="1.00" stroke-width="0.3"><path d="
M 140.00 92.00 
C 146.10 85.65 163.82 106.40 161.00 111.00
C 164.80 108.34 165.19 106.30 166.00 102.00
C 165.27 99.41 159.24 95.80 157.25 93.75 C 155.26 91.71 151.70 86.38 149.00 86.00
C 144.99 86.99 142.35 88.17 140.00 92.00 Z"/>
</g>
<g fill="None" fill-opacity="0.0" stroke="#042EB9" stroke-opacity="1.00" stroke-width="0.3"><path d="
M 140.00 92.00 
C 131.49 105.89 148.82 119.52 161.00 111.00
C 163.82 106.40 146.10 85.65 140.00 92.00 Z"/>
</g>
<g fill="None" fill-opacity="0.0" stroke="#1A6BB3" stroke-opacity="1.00" stroke-width="0.3"><path d="
M 144.00 139.00 
C 143.92 139.34 144.44 142.07 143.00 143.00
C 143.95 144.69 145.53 142.26 146.00 144.00
C 149.27 138.50 150.51 135.89 153.68 129.68 C 156.85 123.47 153.48 116.54 149.93 123.93 C 146.37 131.31 147.30 132.32 144.00 139.00 Z"/>
</g>
<g fill="None" fill-opacity="0.0" stroke="#7FA0DD" stroke-opacity="1.00" stroke-width="0.3"><path d="
M 112.00 142.00 
C 115.27 139.66 118.63 136.32 121.00 133.00
C 121.00 133.00 120.16 132.77 120.00 133.00
C 118.00 135.86 114.71 139.73 112.00 142.00 Z"/>
</g>
<g fill="None" fill-opacity="0.0" stroke="#1652AE" stroke-opacity="1.00" stroke-width="0.3"><path d="
M 119.00 166.00 
C 121.65 166.23 122.34 166.43 121.00 169.00
C 131.46 162.52 139.79 154.45 146.00 144.00
C 145.53 142.26 143.95 144.69 143.00 143.00
C 144.44 142.07 143.92 139.34 144.00 139.00
C 139.32 148.46 128.27 160.50 119.00 166.00 Z"/>
</g>
<g fill="None" fill-opacity="0.0" stroke="#1A3CA3" stroke-opacity="1.00" stroke-width="0.3"><path d="
M 86.00 176.00 
C 81.47 176.55 76.49 176.64 72.00 176.00
C 64.79 175.72 58.82 172.67 52.00 172.00
C 52.19 172.41 52.00 173.00 52.00 173.00
C 59.02 176.19 67.27 178.47 75.00 179.00
C 80.19 179.35 85.80 179.28 91.00 179.00
C 101.60 178.42 112.08 174.52 121.00 169.00
C 122.34 166.43 121.65 166.23 119.00 166.00
C 109.43 171.68 97.28 175.77 86.00 176.00 Z"/>
</g>
<g fill="None" fill-opacity="0.0" stroke="#C0C6CD" stroke-opacity="1.00" stroke-width="0.3"><path d="
M 48.00 171.00 
C 47.76 170.82 48.00 170.00 48.00 170.00
C 47.34 168.65 45.41 168.15 44.00 168.00
C 44.50 169.82 46.57 170.19 48.00 171.00 Z"/>
</g>
<g fill="None" fill-opacity="0.0" stroke="#7F8DB0" stroke-opacity="1.00" stroke-width="0.3"><path d="
M 48.00 171.00 
C 49.29 171.73 50.64 172.38 52.00 173.00
C 52.00 173.00 52.19 172.41 52.00 172.00
C 51.24 170.38 49.39 170.59 48.00 170.00
C 48.00 170.00 47.76 170.82 48.00 171.00 Z"/>
</g>
<g fill="None" fill-opacity="0.0" stroke="#99B1FA" stroke-opacity="1.00" stroke-width="0.3"><path d="
M 86.00 176.00 
C 81.36 176.09 76.64 176.18 72.00 176.00
C 76.49 176.64 81.47 176.55 86.00 176.00 Z"/>
</g>
<g fill="None" fill-opacity="0.0" stroke="#92A5EE" stroke-opacity="1.00" stroke-width="0.3"><path d="
M 91.00 179.00 
C 85.80 179.28 80.19 179.35 75.00 179.00
C 80.11 179.92 85.84 179.84 91.00 179.00 Z"/>
</g>
<g fill="#FDFEFE" fill-opacity="1.00" stroke="None">
<path d="
M 0.00 200.00 
L 200.00 200.00
L 200.00 0.00
L 0.00 0.00
L 0.00 200.00
M 91.00 21.00 
C 91.50 21.00 92.00 21.00 92.00 21.00
C 98.97 22.15 106.76 23.94 113.08 26.92 C 119.39 29.91 124.51 32.75 130.08 36.92 C 135.65 41.09 138.54 45.59 143.25 50.75 C 147.96 55.91 148.50 62.14 152.78 68.22 C 157.05 74.31 153.68 86.24 149.22 75.78 C 144.77 65.31 147.30 66.98 141.08 56.92 C 134.85 46.87 123.20 36.26 112.77 31.23 C 102.34 26.20 102.23 25.28 92.00 24.00
C 90.72 23.84 89.30 24.00 88.00 24.00
C 82.67 24.00 77.33 23.89 72.00 24.00
C 65.21 24.14 58.13 28.43 52.00 28.00
C 50.61 29.56 48.15 30.67 46.00 31.00
C 47.09 28.60 50.00 28.33 52.00 27.00
C 59.08 23.95 67.13 21.43 75.00 21.00
C 78.94 20.36 87.29 18.25 91.00 21.00
M 88.00 55.00 
C 102.98 55.42 111.92 64.92 122.00 75.00
C 125.27 78.27 126.69 80.51 128.00 85.00
C 130.87 94.87 130.97 104.47 129.00 114.00
C 127.93 119.19 126.52 122.58 124.00 127.00
C 122.98 128.80 122.04 131.05 121.00 133.00
C 118.63 136.32 115.27 139.66 112.00 142.00
C 109.84 143.54 107.31 144.73 105.00 146.00
C 62.66 169.34 14.42 119.39 40.00 78.00
C 40.64 76.96 41.38 76.01 42.00 75.00
C 42.39 74.36 42.63 73.61 43.00 73.00
C 45.67 68.62 50.72 64.36 55.00 62.00
C 58.22 60.22 61.60 58.37 65.00 57.00
C 68.87 55.44 72.65 55.03 77.00 55.00
C 80.62 54.56 84.41 54.49 88.00 55.00
M 166.00 102.00 
C 165.19 106.30 164.80 108.34 161.00 111.00
C 148.82 119.52 131.49 105.89 140.00 92.00
C 142.35 88.17 144.99 86.99 149.00 86.00
C 159.84 83.31 168.00 91.33 166.00 102.00
M 146.00 144.00 
C 139.79 154.45 131.46 162.52 121.00 169.00
C 112.08 174.52 101.60 178.42 91.00 179.00
C 85.84 179.84 80.11 179.92 75.00 179.00
C 67.27 178.47 59.02 176.19 52.00 173.00
C 50.64 172.38 49.29 171.73 48.00 171.00
C 46.57 170.19 44.50 169.82 44.00 168.00
C 45.41 168.15 47.34 168.65 48.00 170.00
C 49.39 170.59 51.24 170.38 52.00 172.00
C 58.82 172.67 64.79 175.72 72.00 176.00
C 76.64 176.18 81.36 176.09 86.00 176.00
C 97.28 175.77 109.43 171.68 119.00 166.00
C 128.27 160.50 139.32 148.46 144.00 139.00
C 147.30 132.32 146.37 131.31 149.93 123.93 C 153.48 116.54 156.85 123.47 153.68 129.68 C 150.51 135.89 149.27 138.50 146.00 144.00 Z"/>
</g>
<g fill="#8BB4ED" fill-opacity="1.00" stroke="None">
<path d="
M 75.00 21.00 
C 80.30 20.71 85.69 21.00 91.00 21.00
C 87.29 18.25 78.94 20.36 75.00 21.00 Z"/>
</g>
<g fill="#234D9A" fill-opacity="1.00" stroke="None">
<path d="
M 52.00 27.00 
C 51.84 27.06 52.00 28.00 52.00 28.00
C 58.13 28.43 65.21 24.14 72.00 24.00
C 77.13 23.38 82.92 23.31 88.00 24.00
C 89.30 24.00 90.72 23.84 92.00 24.00
C 90.35 22.75 90.05 22.26 92.00 21.00
C 92.00 21.00 91.50 21.00 91.00 21.00
C 85.69 21.00 80.30 20.71 75.00 21.00
C 67.13 21.43 59.08 23.95 52.00 27.00 Z"/>
</g>
<g fill="#1F6BB1" fill-opacity="1.00" stroke="None">
<path d="
M 92.00 24.00 
C 102.23 25.28 102.34 26.20 112.77 31.23 C 123.20 36.26 134.85 46.87 141.08 56.92 C 147.30 66.98 144.77 65.31 149.22 75.78 C 153.68 86.24 157.05 74.31 152.78 68.22 C 148.50 62.14 147.96 55.91 143.25 50.75 C 138.54 45.59 135.65 41.09 130.08 36.92 C 124.51 32.75 119.39 29.91 113.08 26.92 C 106.76 23.94 98.97 22.15 92.00 21.00
C 90.05 22.26 90.35 22.75 92.00 24.00 Z"/>
</g>
<g fill="#8EB6F2" fill-opacity="1.00" stroke="None">
<path d="
M 72.00 24.00 
C 77.33 23.89 82.67 24.00 88.00 24.00
C 82.92 23.31 77.13 23.38 72.00 24.00 Z"/>
</g>
<g fill="#879BB2" fill-opacity="1.00" stroke="None">
<path d="
M 52.00 28.00 
C 52.00 28.00 51.84 27.06 52.00 27.00
C 50.00 28.33 47.09 28.60 46.00 31.00
C 48.15 30.67 50.61 29.56 52.00 28.00 Z"/>
</g>
<g fill="#4F8CCB" fill-opacity="1.00" stroke="None">
<path d="
M 77.00 55.00 
C 78.67 54.99 80.33 55.00 82.00 55.00
C 84.00 55.00 86.00 54.94 88.00 55.00
C 84.41 54.49 80.62 54.56 77.00 55.00 Z"/>
</g>
<g fill="#0157BC" fill-opacity="1.00" stroke="None">
<path d="
M 65.00 57.00 
C 65.27 57.00 67.04 58.90 68.00 58.00
C 65.95 59.34 67.05 60.56 65.00 62.00
C 73.35 67.42 83.42 77.32 91.75 86.25 C 100.08 95.17 111.72 103.80 117.00 115.00
C 121.05 112.91 120.16 118.96 123.00 117.00
C 123.87 121.55 121.95 122.46 124.00 127.00
C 126.52 122.58 127.93 119.19 129.00 114.00
C 129.42 99.88 114.48 93.35 106.75 83.25 C 99.03 73.14 88.46 66.43 82.00 55.00
C 80.33 55.00 78.67 54.99 77.00 55.00
C 72.65 55.03 68.87 55.44 65.00 57.00 Z"/>
</g>
<g fill="#0867BA" fill-opacity="1.00" stroke="None">
<path d="
M 129.00 114.00 
C 130.97 104.47 130.87 94.87 128.00 85.00
C 126.77 82.01 123.99 77.79 122.00 75.00
C 111.92 64.92 102.98 55.42 88.00 55.00
C 86.00 54.94 84.00 55.00 82.00 55.00
C 88.46 66.43 99.03 73.14 106.75 83.25 C 114.48 93.35 129.42 99.88 129.00 114.00 Z"/>
</g>
<g fill="#0149BC" fill-opacity="1.00" stroke="None">
<path d="
M 55.00 62.00 
C 51.13 64.68 46.32 69.44 43.00 73.00
C 42.63 73.61 42.39 74.36 42.00 75.00
C 44.80 71.95 48.50 68.94 52.00 67.00
C 51.71 73.69 63.62 71.94 67.03 79.97 C 70.45 87.99 79.79 90.41 84.22 96.78 C 88.66 103.14 96.08 108.90 100.92 114.08 C 105.75 119.27 114.04 126.76 114.00 131.00
C 116.06 132.35 118.99 129.81 120.00 133.00
C 120.16 132.77 121.00 133.00 121.00 133.00
C 122.04 131.05 122.98 128.80 124.00 127.00
C 121.95 122.46 123.87 121.55 123.00 117.00
C 120.16 118.96 121.05 112.91 117.00 115.00
C 111.72 103.80 100.08 95.17 91.75 86.25 C 83.42 77.32 73.35 67.42 65.00 62.00
C 67.05 60.56 65.95 59.34 68.00 58.00
C 67.04 58.90 65.27 57.00 65.00 57.00
C 61.60 58.37 58.22 60.22 55.00 62.00 Z"/>
</g>
<g fill="#88ACE0" fill-opacity="1.00" stroke="None">
<path d="
M 43.00 73.00 
C 46.32 69.44 51.13 64.68 55.00 62.00
C 50.72 64.36 45.67 68.62 43.00 73.00 Z"/>
</g>
<g fill="#003ABC" fill-opacity="1.00" stroke="None">
<path d="
M 42.00 75.00 
C 41.38 76.01 40.64 76.96 40.00 78.00
C 41.46 76.43 44.62 75.85 46.00 74.00
C 43.13 80.41 52.23 83.05 57.25 89.75 C 62.27 96.46 69.69 101.18 75.25 107.75 C 80.80 114.33 87.40 118.92 93.00 126.00
C 96.41 122.13 96.20 127.14 96.00 130.00
C 99.79 128.65 100.70 132.25 104.00 132.00
C 103.27 135.15 104.57 137.57 107.00 139.00
C 108.08 136.06 110.61 138.57 112.00 140.00
C 109.18 141.14 106.54 143.35 105.00 146.00
C 107.31 144.73 109.84 143.54 112.00 142.00
C 114.71 139.73 118.00 135.86 120.00 133.00
C 118.99 129.81 116.06 132.35 114.00 131.00
C 114.04 126.76 105.75 119.27 100.92 114.08 C 96.08 108.90 88.66 103.14 84.22 96.78 C 79.79 90.41 70.45 87.99 67.03 79.97 C 63.62 71.94 51.71 73.69 52.00 67.00
C 48.50 68.94 44.80 71.95 42.00 75.00 Z"/>
</g>
<g fill="#0124BC" fill-opacity="1.00" stroke="None">
<path d="
M 40.00 78.00 
C 14.42 119.39 62.66 169.34 105.00 146.00
C 106.54 143.35 109.18 141.14 112.00 140.00
C 110.61 138.57 108.08 136.06 107.00 139.00
C 104.57 137.57 103.27 135.15 104.00 132.00
C 100.70 132.25 99.79 128.65 96.00 130.00
C 96.20 127.14 96.41 122.13 93.00 126.00
C 87.40 118.92 80.80 114.33 75.25 107.75 C 69.69 101.18 62.27 96.46 57.25 89.75 C 52.23 83.05 43.13 80.41 46.00 74.00
C 44.62 75.85 41.46 76.43 40.00 78.00 Z"/>
</g>
<g fill="#BDE8F8" fill-opacity="1.00" stroke="None">
<path d="
M 128.00 85.00 
C 126.69 80.51 125.27 78.27 122.00 75.00
C 123.99 77.79 126.77 82.01 128.00 85.00 Z"/>
</g>
<g fill="#1665B6" fill-opacity="1.00" stroke="None">
<path d="
M 149.00 86.00 
C 151.70 86.38 155.26 91.71 157.25 93.75 C 159.24 95.80 165.27 99.41 166.00 102.00
C 168.00 91.33 159.84 83.31 149.00 86.00 Z"/>
</g>
<g fill="#094EB9" fill-opacity="1.00" stroke="None">
<path d="
M 140.00 92.00 
C 146.10 85.65 163.82 106.40 161.00 111.00
C 164.80 108.34 165.19 106.30 166.00 102.00
C 165.27 99.41 159.24 95.80 157.25 93.75 C 155.26 91.71 151.70 86.38 149.00 86.00
C 144.99 86.99 142.35 88.17 140.00 92.00 Z"/>
</g>
<g fill="#042EB9" fill-opacity="1.00" stroke="None">
<path d="
M 140.00 92.00 
C 131.49 105.89 148.82 119.52 161.00 111.00
C 163.82 106.40 146.10 85.65 140.00 92.00 Z"/>
</g>
<g fill="#1A6BB3" fill-opacity="1.00" stroke="None">
<path d="
M 144.00 139.00 
C 143.92 139.34 144.44 142.07 143.00 143.00
C 143.95 144.69 145.53 142.26 146.00 144.00
C 149.27 138.50 150.51 135.89 153.68 129.68 C 156.85 123.47 153.48 116.54 149.93 123.93 C 146.37 131.31 147.30 132.32 144.00 139.00 Z"/>
</g>
<g fill="#7FA0DD" fill-opacity="1.00" stroke="None">
<path d="
M 112.00 142.00 
C 115.27 139.66 118.63 136.32 121.00 133.00
C 121.00 133.00 120.16 132.77 120.00 133.00
C 118.00 135.86 114.71 139.73 112.00 142.00 Z"/>
</g>
<g fill="#1652AE" fill-opacity="1.00" stroke="None">
<path d="
M 119.00 166.00 
C 121.65 166.23 122.34 166.43 121.00 169.00
C 131.46 162.52 139.79 154.45 146.00 144.00
C 145.53 142.26 143.95 144.69 143.00 143.00
C 144.44 142.07 143.92 139.34 144.00 139.00
C 139.32 148.46 128.27 160.50 119.00 166.00 Z"/>
</g>
<g fill="#1A3CA3" fill-opacity="1.00" stroke="None">
<path d="
M 86.00 176.00 
C 81.47 176.55 76.49 176.64 72.00 176.00
C 64.79 175.72 58.82 172.67 52.00 172.00
C 52.19 172.41 52.00 173.00 52.00 173.00
C 59.02 176.19 67.27 178.47 75.00 179.00
C 80.19 179.35 85.80 179.28 91.00 179.00
C 101.60 178.42 112.08 174.52 121.00 169.00
C 122.34 166.43 121.65 166.23 119.00 166.00
C 109.43 171.68 97.28 175.77 86.00 176.00 Z"/>
</g>
<g fill="#C0C6CD" fill-opacity="1.00" stroke="None">
<path d="
M 48.00 171.00 
C 47.76 170.82 48.00 170.00 48.00 170.00
C 47.34 168.65 45.41 168.15 44.00 168.00
C 44.50 169.82 46.57 170.19 48.00 171.00 Z"/>
</g>
<g fill="#7F8DB0" fill-opacity="1.00" stroke="None">
<path d="
M 48.00 171.00 
C 49.29 171.73 50.64 172.38 52.00 173.00
C 52.00 173.00 52.19 172.41 52.00 172.00
C 51.24 170.38 49.39 170.59 48.00 170.00
C 48.00 170.00 47.76 170.82 48.00 171.00 Z"/>
</g>
<g fill="#99B1FA" fill-opacity="1.00" stroke="None">
<path d="
M 86.00 176.00 
C 81.36 176.09 76.64 176.18 72.00 176.00
C 76.49 176.64 81.47 176.55 86.00 176.00 Z"/>
</g>
<g fill="#92A5EE" fill-opacity="1.00" stroke="None">
<path d="
M 91.00 179.00 
C 85.80 179.28 80.19 179.35 75.00 179.00
C 80.11 179.92 85.84 179.84 91.00 179.00 Z"/>
</g>
</svg>